<svg width="56" height="27" viewBox="0 0 56 27" fill="none" xmlns="http://www.w3.org/2000/svg">
<g clip-path="url(#clip0_3608_471)">
<path fill-rule="evenodd" clip-rule="evenodd" d="M0 -17.835H56V37.6369H0V-17.835Z" fill="white"/>
<path fill-rule="evenodd" clip-rule="evenodd" d="M54.9431 19.6305C54.9431 20.9574 54.0949 21.5758 52.5767 21.5758H49.6753V20.2489H52.5767C52.8447 20.2489 53.068 20.205 53.1576 20.1169C53.2466 20.0281 53.3359 19.8953 53.3359 19.7187C53.3359 19.5414 53.2469 19.3648 53.1576 19.2766C53.068 19.1878 52.8897 19.1439 52.6217 19.1439C51.2382 19.0993 49.4967 19.1878 49.4967 17.2422C49.4967 16.3574 50.077 15.3845 51.6395 15.3845H54.6305V16.7113H51.8624C51.5951 16.7113 51.4162 16.7113 51.2822 16.7995C51.1482 16.9322 51.0592 17.0649 51.0592 17.2861C51.0592 17.5073 51.1932 17.6401 51.3715 17.7289C51.5505 17.7728 51.7291 17.817 51.9524 17.817H52.7557C53.6039 17.817 54.1398 17.9937 54.4971 18.3037C54.7644 18.613 54.9431 19.0115 54.9431 19.6305ZM48.6481 18.3037C48.2908 17.9937 47.7549 17.817 46.9067 17.817H46.1034C45.8804 17.817 45.7015 17.7725 45.5231 17.7289C45.3442 17.6401 45.2108 17.5073 45.2108 17.2861C45.2108 17.0649 45.2552 16.9322 45.4338 16.7995C45.5678 16.7113 45.7461 16.7113 46.0141 16.7113H48.7821V15.3845H45.7911C44.1836 15.3845 43.6477 16.3574 43.6477 17.2422C43.6477 19.1875 45.3892 19.0993 46.7733 19.1439C47.0407 19.1439 47.2196 19.1878 47.3086 19.2766C47.3976 19.3648 47.4876 19.5414 47.4876 19.7187C47.4876 19.8953 47.3979 20.0281 47.3086 20.1169C47.1746 20.205 46.9963 20.2489 46.7283 20.2489H43.8263V21.5758H46.7283C48.2459 21.5758 49.0944 20.9571 49.0944 19.6305C49.0944 19.0115 48.9161 18.613 48.6481 18.3037ZM42.9334 20.2938H39.4072V19.0554H42.8445V17.8177H39.4072V16.6674H42.9334V15.3851H37.9337V21.5761H42.9334V20.2938ZM36.3262 15.6948C35.8349 15.4293 35.2546 15.3848 34.4957 15.3848H31.0584V21.5758H32.5759V19.3205H34.1834C34.7187 19.3205 35.0317 19.3651 35.255 19.586C35.5229 19.8953 35.5229 20.4262 35.5229 20.8244V21.5758H36.9958V20.3817C36.9958 19.8069 36.9514 19.5414 36.7728 19.2321C36.6388 19.0548 36.3715 18.8339 36.0142 18.7012C36.4155 18.5691 37.0858 18.0382 37.0858 17.0649C37.0854 16.3577 36.8175 15.9596 36.3262 15.6948ZM27.8438 15.3848H23.0667L21.1469 17.4192L19.3164 15.3848H13.2894V21.5758H19.2274L21.1472 19.5414L22.9777 21.5758H25.8797V19.4978H27.7548C29.0493 19.4978 30.3445 19.1439 30.3445 17.4192C30.3442 15.7387 29.0047 15.3848 27.8438 15.3848ZM35.1207 17.9501C34.8977 18.0382 34.6744 18.0382 34.4064 18.0382L32.5759 18.0828V16.6671H34.4064C34.6744 16.6671 34.9423 16.6671 35.1207 16.7998C35.2996 16.8886 35.433 17.0653 35.433 17.3307C35.433 17.5961 35.2996 17.8173 35.1207 17.9501ZM27.8438 18.2594H25.8794V16.6671H27.8438C28.3797 16.6671 28.7367 16.8886 28.7367 17.4192C28.7367 17.9501 28.3794 18.2594 27.8438 18.2594ZM22.0845 18.4803L24.4059 16.0484V21.0456L22.0845 18.4803ZM18.4682 20.2938H14.7626V19.0554H18.0662V17.8177H14.7626V16.6674H18.5129L20.1647 18.4806L18.4682 20.2938ZM50.7909 10.9182H48.6481L45.8354 6.27456V10.9182H42.8001L42.2192 9.54703H39.0942L38.5139 10.9182H36.7725C36.0582 10.9182 35.1207 10.7412 34.5854 10.2103C34.0941 9.67975 33.8261 8.97223 33.8261 7.86655C33.8261 6.93783 33.9601 6.0976 34.6294 5.43432C35.0757 4.94768 35.8796 4.7268 36.9061 4.7268H38.3346V6.05368H36.9061C36.3708 6.05368 36.0579 6.14216 35.7456 6.4076C35.4776 6.67304 35.3436 7.15935 35.3436 7.82263C35.3436 8.48591 35.4776 8.97255 35.7456 9.28223C35.9686 9.50311 36.3708 9.59159 36.7721 9.59159H37.4421L39.5848 4.72712H41.8172L44.3173 10.5645V4.7268H46.639L49.2731 9.01647V4.7268H50.7906V10.9182H50.7909ZM33.0672 4.7268H31.5497V10.9182H33.0672V4.7268ZM29.8972 4.99224C29.406 4.7268 28.8707 4.7268 28.1118 4.7268H24.6738V10.9182H26.147V8.66255H27.7542C28.2901 8.66255 28.6474 8.70679 28.8704 8.92799C29.1383 9.23767 29.0933 9.76855 29.0933 10.1222V10.9182H30.6109V9.67975C30.6109 9.14919 30.5665 8.88375 30.3435 8.57407C30.2096 8.39711 29.9416 8.17591 29.6293 8.04351C30.0306 7.86655 30.7008 7.38024 30.7008 6.40728C30.7011 5.69976 30.3882 5.3016 29.8972 4.99224ZM23.6023 9.63583H20.12V8.39743H23.5576V7.11512H20.12V6.00943H23.6023V4.72712H18.6022V10.9185H23.6023V9.63583ZM17.486 4.7268H15.0306L13.2001 8.92799L11.2357 4.7268H8.82495V10.5642L6.28023 4.7268H4.04815L1.36945 10.9182H2.9766L3.55687 9.54703H6.68186L7.26213 10.9182H10.2981V6.05368L12.4855 10.9182H13.7801L15.9678 6.05368V10.9182H17.4857V4.7268H17.486ZM41.6839 8.22047L40.6567 5.78824L39.6301 8.22047H41.6839ZM28.7367 7.24783C28.5137 7.38055 28.2904 7.38055 27.9778 7.38055H26.147V6.00976H27.9775C28.2454 6.00976 28.5574 6.00976 28.7364 6.09824C28.9147 6.23096 29.0043 6.40792 29.0043 6.67304C29.0043 6.93815 28.915 7.15903 28.7367 7.24783ZM4.09248 8.22047L5.11937 5.78824L6.14625 8.22047H4.09248ZM54.5861 1.44263H1.32446V7.60144L3.15492 3.48872H7.03883L7.57476 4.50592V3.48872H12.1286L13.1555 5.69976L14.1377 3.48872H28.6474C29.3167 3.48872 29.8969 3.62144 30.3439 3.97504V3.48872H34.3171V3.97504C34.9864 3.62112 35.8346 3.48872 36.8171 3.48872H42.5762L43.1121 4.50592V3.48872H47.3533L47.9785 4.50592V3.48872H52.1301V12.1565H47.9339L47.1306 10.83V12.1565H41.9069L41.3266 10.7415H40.0314L39.4512 12.1565H36.7281C35.6566 12.1565 34.8527 11.8911 34.3174 11.626V12.1565H27.8438V10.1664C27.8438 9.90095 27.7991 9.85671 27.6205 9.85671H27.3975V12.1562H14.8966V11.0505L14.4503 12.1562H11.8163L11.37 11.0948V12.1562H6.32489L5.78928 10.7412H4.49443L3.91416 12.1562H1.32446V25.0477H54.4971L54.5861 22.4161C54.0059 22.6815 53.2019 22.8142 52.3984 22.8142H48.5141V22.2833C48.0679 22.6376 47.264 22.8142 46.5054 22.8142H34.2724V20.8244C34.2724 20.5589 34.2281 20.5589 34.0045 20.5589H33.7815V22.8142H29.7633V20.4705C29.094 20.7798 28.3348 20.7798 27.6652 20.7798H27.2185V22.8142H22.3078L21.1472 21.4873L19.8527 22.8142H11.9499V14.1467H19.986L21.1469 15.4729L22.3971 14.1467H27.7991C28.4237 14.1467 29.451 14.2349 29.8972 14.6769V14.1467H34.7187C35.21 14.1467 36.1479 14.2349 36.7725 14.6769V14.1467H44.0497V14.6773C44.4516 14.3233 45.2108 14.147 45.8801 14.147H49.9427V14.6773C50.3896 14.3679 51.0142 14.147 51.8181 14.147H54.5861V1.44263Z" fill="#9E9E9E"/>
</g>
<defs>
<clipPath id="clip0_3608_471">
<rect width="56" height="26.2278" fill="white"/>
</clipPath>
</defs>
</svg>
