<svg width="66" height="32" viewBox="0 0 66 32" fill="none" xmlns="http://www.w3.org/2000/svg">
<g clip-path="url(#clip0_3608_227)">
<path d="M13.6036 9.80252C14.2386 9.58526 14.9159 9.4694 15.6187 9.4694C18.6951 9.4694 21.2634 11.7115 21.8504 14.6922L26.211 13.7797C25.2118 8.71625 20.8485 4.90417 15.6187 4.90417C14.4192 4.90417 13.2705 5.10405 12.1924 5.47483L13.6036 9.80252Z" fill="url(#paint0_linear_3608_227)"/>
<path d="M8.45823 24.3034L11.4076 20.8824C10.0924 19.686 9.2626 17.9393 9.2626 15.9927C9.2626 14.049 10.0924 12.3023 11.4076 11.1089L8.45823 7.68494C6.22294 9.71843 4.81177 12.6876 4.81177 15.9927C4.81177 19.3008 6.22294 22.2699 8.45823 24.3034" fill="url(#paint1_linear_3608_227)"/>
<path d="M21.8504 17.3021C21.2606 20.2799 18.6951 22.5191 15.6215 22.5191C14.9159 22.5191 14.2358 22.4032 13.6036 22.1831L12.1924 26.5166C13.2705 26.8845 14.422 27.0843 15.6215 27.0843C20.8457 27.0843 25.2062 23.278 26.211 18.2204L21.8504 17.3021Z" fill="url(#paint2_linear_3608_227)"/>
<path d="M30.0238 21.0244C29.8798 20.7868 29.6879 20.4074 29.5694 20.1264C28.8779 18.481 28.8468 16.7778 29.4282 15.144C30.0689 13.351 31.2938 11.9808 32.8771 11.2798C34.8669 10.4021 37.0655 10.573 38.9734 11.7346C40.1842 12.4472 41.0422 13.5479 41.6941 15.1064C41.776 15.3062 41.8494 15.5177 41.9227 15.7002L30.0238 21.0244ZM33.9976 13.9245C32.5836 14.5473 31.8555 15.9088 32.0079 17.5019L37.9912 14.8572C36.9611 13.6175 35.6233 13.2061 33.9976 13.9245V13.9245ZM38.7363 19.6774C38.7335 19.6774 38.7335 19.6803 38.7335 19.6803L38.6093 19.5934C38.2509 20.1872 37.6949 20.671 36.9921 20.9838C35.6543 21.5805 34.4153 21.427 33.5235 20.6246L33.4416 20.7521C33.4416 20.7521 33.4416 20.7492 33.4388 20.7492L31.9204 23.081C32.2986 23.3504 32.7022 23.5764 33.1255 23.7588C34.802 24.4743 36.518 24.4396 38.2085 23.6864C39.4306 23.1418 40.3902 22.3134 41.045 21.2619L38.7363 19.6774ZM46.0801 7.8501V20.81L48.0444 21.6269L46.9296 24.2976L44.762 23.3707C44.2766 23.1534 43.9435 22.8232 43.6952 22.4495C43.4553 22.0701 43.2775 21.5458 43.2775 20.8448V7.8501H46.0801ZM51.1659 17.5106C51.1659 16.407 51.6429 15.4163 52.3936 14.7443L50.3785 12.4385C49.0125 13.6783 48.1517 15.4887 48.1517 17.5048C48.1488 19.5239 49.0096 21.3372 50.3728 22.577L52.3852 20.2712C51.6372 19.5963 51.1659 18.6114 51.1659 17.5106V17.5106ZM54.7446 21.1866C54.3495 21.1866 53.9657 21.117 53.6101 20.9954L52.6476 23.9298C53.3052 24.1557 54.008 24.2803 54.7418 24.2803C57.9311 24.2832 60.5925 21.96 61.2106 18.875L58.2528 18.2551C57.9169 19.9323 56.4747 21.1895 54.7446 21.1866V21.1866ZM54.7531 10.741C54.0221 10.741 53.3194 10.8627 52.6617 11.0857L53.6157 14.023C53.9741 13.9013 54.3552 13.8347 54.7503 13.8347C56.4832 13.8376 57.9282 15.1006 58.2556 16.7807L61.2134 16.1666C60.6066 13.0758 57.9452 10.7439 54.7531 10.741V10.741Z" fill="white"/>
</g>
<defs>
<linearGradient id="paint0_linear_3608_227" x1="19.2017" y1="4.90417" x2="19.2017" y2="14.6922" gradientUnits="userSpaceOnUse">
<stop stop-color="white"/>
<stop offset="1" stop-color="white" stop-opacity="0.75"/>
</linearGradient>
<linearGradient id="paint1_linear_3608_227" x1="8.10967" y1="7.68494" x2="8.10967" y2="24.3034" gradientUnits="userSpaceOnUse">
<stop stop-color="white"/>
<stop offset="1" stop-color="white" stop-opacity="0.75"/>
</linearGradient>
<linearGradient id="paint2_linear_3608_227" x1="19.2017" y1="17.3021" x2="19.2017" y2="27.0843" gradientUnits="userSpaceOnUse">
<stop stop-color="white"/>
<stop offset="1" stop-color="white" stop-opacity="0.75"/>
</linearGradient>
<clipPath id="clip0_3608_227">
<rect width="66" height="32" fill="white"/>
</clipPath>
</defs>
</svg>
